<svg xmlns="http://www.w3.org/2000/svg" viewBox="0 0 48 48"><defs><style>.cls-1{fill:#ffbc5a}.cls-3{fill:#505572}.cls-4{fill:#231f20}</style></defs><g id="Dollar_Coin" data-name="Dollar Coin"><path class="cls-1" d="M24 1a23 23 0 1 0 23 23A23.026 23.026 0 0 0 24 1z"/><path d="M24 5a19 19 0 1 0 19 19A19.022 19.022 0 0 0 24 5z" style="fill:#ef9d3a"/><path class="cls-1" d="M24 39a15 15 0 1 1 15-15 15.016 15.016 0 0 1-15 15z"/><path class="cls-3" d="M27 32h-6a3.003 3.003 0 0 1-3-3v-1a1 1 0 0 1 2 0v1a1.001 1.001 0 0 0 1 1h6a1.001 1.001 0 0 0 1-1v-3a1.001 1.001 0 0 0-1-1h-6a3.003 3.003 0 0 1-3-3v-3a3.003 3.003 0 0 1 3-3h6a3.003 3.003 0 0 1 3 3v1a1 1 0 0 1-2 0v-1a1.001 1.001 0 0 0-1-1h-6a1.001 1.001 0 0 0-1 1v3a1.001 1.001 0 0 0 1 1h6a3.003 3.003 0 0 1 3 3v3a3.003 3.003 0 0 1-3 3z"/><path class="cls-3" d="M24 18a1 1 0 0 1-1-1v-2a1 1 0 0 1 2 0v2a1 1 0 0 1-1 1zM24 34a1 1 0 0 1-1-1v-2a1 1 0 0 1 2 0v2a1 1 0 0 1-1 1z"/><path class="cls-4" d="M24 1a23 23 0 1 0 23 23A23.026 23.026 0 0 0 24 1zm0 44a21 21 0 1 1 21-21 21.024 21.024 0 0 1-21 21z"/><path class="cls-4" d="M24 5a19 19 0 1 0 19 19A19.022 19.022 0 0 0 24 5zm0 36a17 17 0 1 1 17-17 17.019 17.019 0 0 1-17 17z"/><path class="cls-4" d="M27 16h-2v-1a1 1 0 0 0-2 0v1h-2a3.003 3.003 0 0 0-3 3v3a3.003 3.003 0 0 0 3 3h6a1.001 1.001 0 0 1 1 1v3a1.001 1.001 0 0 1-1 1h-6a1.001 1.001 0 0 1-1-1v-1a1 1 0 0 0-2 0v1a3.003 3.003 0 0 0 3 3h2v1a1 1 0 0 0 2 0v-1h2a3.003 3.003 0 0 0 3-3v-3a3.003 3.003 0 0 0-3-3h-6a1.001 1.001 0 0 1-1-1v-3a1.001 1.001 0 0 1 1-1h6a1.001 1.001 0 0 1 1 1v1a1 1 0 0 0 2 0v-1a3.003 3.003 0 0 0-3-3z"/></g></svg>